# xmcd
#
# Track frame offsets: 
#        150
#        16104
#        29876
#        45174
#        58482
#        73277
#        88518
#        102561
#        116157
#        129120
#        143777
#        158667
#
# Disc length: 2319 seconds
#
# Revision: 0
# Processed by: cddbd v1.5.2PL0 Copyright (c) Steve Scherf et al.
# Submitted via: ExactAudioCopy v0.99pb3
#
DISCID=a6090d0c
DTITLE=ALB NEGRU - Hello
DYEAR=2006
DGENRE=Pop
TTITLE0=Hello (Muza mea)
TTITLE1=Fierbinte (feat Andra)
TTITLE2=Periculos
TTITLE3=Jumatatea mea
TTITLE4=N' Dianamo (English Version)
TTITLE5=Împreuna (feat Anca)
TTITLE6=Ye, ye, ye (feat Mister M.)
TTITLE7=Salvamar (feat Blondy)
TTITLE8=Avec amour
TTITLE9=3000 de Wati
TTITLE10=N' Dianamo (Romanian Version)
TTITLE11=Turn Off The Light (Împreuna)
EXTD=
EXTT0=
EXTT1=
EXTT2=
EXTT3=
EXTT4=
EXTT5=
EXTT6=
EXTT7=
EXTT8=
EXTT9=
EXTT10=
EXTT11=
PLAYORDER=
